<?xml version="1.0" encoding="UTF-8" standalone="no"?>
<svg
   xmlns:dc="http://purl.org/dc/elements/1.1/"
   xmlns:cc="http://creativecommons.org/ns#"
   xmlns:rdf="http://www.w3.org/1999/02/22-rdf-syntax-ns#"
   xmlns:svg="http://www.w3.org/2000/svg"
   xmlns="http://www.w3.org/2000/svg"
   xmlns:sodipodi="http://sodipodi.sourceforge.net/DTD/sodipodi-0.dtd"
   xmlns:inkscape="http://www.inkscape.org/namespaces/inkscape"
   width="1920mm"
   height="1080mm"
   viewBox="0 0 1920 1080"
   version="1.1"
   id="svg843"
   inkscape:version="1.0.1 (3bc2e813f5, 2020-09-07)"
   sodipodi:docname="Proyecto_dibujo.svg">
  <defs
     id="defs837">
    <inkscape:perspective
       sodipodi:type="inkscape:persp3d"
       inkscape:vp_x="328.7313 : 512.12397 : 1"
       inkscape:vp_y="0 : 114.58964 : 0"
       inkscape:vp_z="571.47656 : 543.40202 : 1"
       inkscape:persp3d-origin="450.10394 : 507.13687 : 1"
       id="perspective1406" />
    <filter
       inkscape:collect="always"
       style="color-interpolation-filters:sRGB"
       id="filter2418"
       x="-0.00016452738"
       width="1.0003291"
       y="-0.00012575313"
       height="1.0002515">
      <feGaussianBlur
         inkscape:collect="always"
         stdDeviation="0.0046559461"
         id="feGaussianBlur2420" />
    </filter>
    <filter
       inkscape:collect="always"
       style="color-interpolation-filters:sRGB"
       id="filter2422"
       x="-0.00019449619"
       width="1.000389"
       y="-0.00088680478"
       height="1.0017736">
      <feGaussianBlur
         inkscape:collect="always"
         stdDeviation="0.0046559461"
         id="feGaussianBlur2424" />
    </filter>
    <filter
       inkscape:collect="always"
       style="color-interpolation-filters:sRGB"
       id="filter2426"
       x="-0.0027695145"
       width="1.005539"
       y="-0.0016962917"
       height="1.0033926">
      <feGaussianBlur
         inkscape:collect="always"
         stdDeviation="0.0046559461"
         id="feGaussianBlur2428" />
    </filter>
    <filter
       inkscape:collect="always"
       style="color-interpolation-filters:sRGB"
       id="filter2430"
       x="-0.0038146426"
       width="1.0076293"
       y="-0.0034780691"
       height="1.0069561">
      <feGaussianBlur
         inkscape:collect="always"
         stdDeviation="0.0046559461"
         id="feGaussianBlur2432" />
    </filter>
    <filter
       inkscape:collect="always"
       style="color-interpolation-filters:sRGB"
       id="filter2434"
       x="-0.002114279"
       width="1.0042286"
       y="-0.0091449926"
       height="1.01829">
      <feGaussianBlur
         inkscape:collect="always"
         stdDeviation="0.0046559461"
         id="feGaussianBlur2436" />
    </filter>
  </defs>
  <sodipodi:namedview
     id="base"
     pagecolor="#ffffff"
     bordercolor="#666666"
     borderopacity="1.0"
     inkscape:pageopacity="0.0"
     inkscape:pageshadow="2"
     inkscape:zoom="0.98994949"
     inkscape:cx="1994.9504"
     inkscape:cy="1796.3571"
     inkscape:document-units="mm"
     inkscape:current-layer="layer1"
     inkscape:document-rotation="0"
     showgrid="false"
     inkscape:window-width="1920"
     inkscape:window-height="986"
     inkscape:window-x="-11"
     inkscape:window-y="-11"
     inkscape:window-maximized="1" />
  <metadata
     id="metadata840">
    <rdf:RDF>
      <cc:Work
         rdf:about="">
        <dc:format>image/svg+xml</dc:format>
        <dc:type
           rdf:resource="http://purl.org/dc/dcmitype/StillImage" />
        <dc:title></dc:title>
      </cc:Work>
    </rdf:RDF>
  </metadata>
  <g
     inkscape:label="Capa 1"
     inkscape:groupmode="layer"
     id="layer1">
    <path
       style="fill:none;stroke:#000000;stroke-width:3.0559375;stroke-linecap:butt;stroke-linejoin:miter;stroke-opacity:1;filter:url(#filter2418);stroke-miterlimit:4;stroke-dasharray:none"
       d="m 446.60737,478.67972 0.26729,57.59659 c 0,0 2.27179,5.7463 3.8754,5.34537 1.60361,-0.40089 -1.33636,0.66818 5.61266,2.13818 6.94899,1.46997 40.62497,1.20269 40.62497,1.20269 0,0 10.69078,-1.06908 12.56165,-2.67269 1.8709,-1.60361 3.87541,-2.27179 4.67723,-5.7463 0.80182,-3.47448 -0.26729,-58.26474 -0.26729,-58.26474 0,0 -0.62037,-3.16275 -1.32908,-3.63522 -0.70871,-0.47246 -5.05542,-5.33892 -5.05542,-5.33892 l -0.33073,-0.56697 c 0,0 4.01598,-1.37015 3.96875,-2.12612 -0.0473,-0.75594 0.18897,-7.22878 0.18897,-7.22878 0,0 -1.4174,-1.7009 -5.19716,-1.98438 -3.77976,-0.28347 -10.39434,-1.32291 -12.85118,-1.13392 -2.45687,0.18899 -24.47396,-0.14174 -24.47396,-0.14174 l -3.92152,0.23622 -9.11868,0.99219 c 0,0 -4.91368,0.94496 -4.96094,1.32291 -0.0472,0.37799 -1.51188,0.23625 0.0473,1.65365 1.55916,1.41743 9.4494,2.3151 9.68565,2.22062 0.23622,-0.0945 35.34077,0.18899 35.34077,0.18899 l 7.79576,-0.2835 c 0,0 8.12649,-1.22841 7.654,-3.02379"
       id="path1580" />
    <path
       style="fill:none;stroke:#000000;stroke-width:3.0559375;stroke-linecap:butt;stroke-linejoin:miter;stroke-opacity:1;filter:url(#filter2422);stroke-miterlimit:4;stroke-dasharray:none"
       d="m 449.98065,459.05208 -0.18899,7.74851 c 0,0 2.92931,2.17336 3.30729,1.88989 0.37799,-0.2835 4.63021,1.60639 8.40997,1.60639 3.77976,0 30.14361,2.36236 31.84451,0.85045 0,0 12.5677,-0.85047 13.89062,-2.40961"
       id="path1582" />
    <path
       style="fill:none;stroke:#000000;stroke-width:3.0559375;stroke-linecap:butt;stroke-linejoin:miter;stroke-opacity:1;filter:url(#filter2426);stroke-miterlimit:4;stroke-dasharray:none"
       d="m 446.60737,478.67972 c 0,0 1.5779,-5.35903 4.03474,-6.58747"
       id="path1584" />
    <path
       style="fill:none;stroke:#000000;stroke-width:3.0559375;stroke-linecap:butt;stroke-linejoin:miter;stroke-opacity:1;filter:url(#filter2430);stroke-miterlimit:4;stroke-dasharray:none"
       d="m 450.64211,472.09225 2.92931,-3.21278"
       id="path1586" />
    <ellipse
       style="fill:#666666;stroke:none;stroke-width:3.0559375;stroke-dashoffset:39.9628;filter:url(#filter2434);stroke-miterlimit:4;stroke-dasharray:none"
       id="path1594"
       ry="0.61095023"
       rx="2.6425724"
       cy="459.05206"
       cx="480.36047" />
    <path
       style="fill:none;stroke:#000000;stroke-width:1.508125;stroke-linecap:butt;stroke-linejoin:miter;stroke-opacity:1;stroke-miterlimit:4;stroke-dasharray:none"
       d="m 446.60737,478.67972 c 0,0 2.99527,-9.98924 6.96405,-9.80025"
       id="path2438" />
    <path
       style="fill:#008dff;stroke:#df001f;stroke-width:3.92857;stroke-miterlimit:4;stroke-dasharray:none;stroke-dashoffset:39.9628;fill-opacity:1"
       d="m 1792.824,2053.0719 c -40.614,-0.8509 -59.4412,-2.1924 -71.1613,-5.0704 -6.8998,-1.6944 -9.1879,-2.7202 -11.724,-5.2563 -1.1068,-1.1068 -2.5933,-1.7825 -3.9214,-1.7825 -2.5727,0 -4.4072,-2.2007 -8.2552,-9.9027 l -2.6278,-5.2599 -0.5302,-107.9544 -0.5302,-107.9544 2.4116,-5.8315 c 1.3264,-3.2073 3.516,-7.3848 4.8658,-9.2834 1.9678,-2.7677 2.4543,-4.125 2.4543,-6.8471 v -3.3951 h 3.804 c 3.0528,0 4.1108,-0.3265 5.3572,-1.6532 0.8542,-0.9093 1.5531,-2.3557 1.5531,-3.2143 0,-0.8586 0.1135,-1.5611 0.2522,-1.5611 0.1387,0 4.0762,1.0446 8.75,2.3214 l 8.4978,2.3214 h 86.0714 c 85.6749,0 86.0968,-0.01 91.5675,-1.524 l 5.4961,-1.524 9.5755,10.1517 c 9.4652,10.0346 9.5889,10.2086 10.7266,15.0954 0.9702,4.1676 1.2649,13.8593 1.8765,61.7295 1.2981,101.5921 1.4486,126.5187 0.8669,143.5714 -0.6701,19.6459 -1.3089,22.021 -7.3937,27.4919 -9.3573,8.413 -13.2264,9.8836 -36.1002,13.7212 -10.8738,1.8244 -12.3429,1.8938 -43.0438,2.033 -17.4821,0.079 -43.9596,-0.1108 -58.8387,-0.4226 z"
       id="path2502"
       transform="scale(0.26458333)" />
    <path
       style="fill:none;stroke:#000000;stroke-width:0.264583px;stroke-linecap:butt;stroke-linejoin:miter;stroke-opacity:1"
       d="m 477.57291,471.71427 c -4.15774,26.08037 -7.74851,53.29465 -5.29167,55.5625 l 5.66965,0.189 c 0,0 4.34673,-55.18452 2.83482,-56.12946"
       id="path2504" />
    <path
       style="fill:none;fill-opacity:1;stroke:#df001f;stroke-width:0.211667;stroke-miterlimit:4;stroke-dasharray:none;stroke-dashoffset:39.9628"
       id="path2508"
       d="m 480.48089,457.76824 c 0.0225,0.52356 -0.11911,1.04862 -0.28321,1.54263 -0.035,0.0642 -0.066,0.13067 -0.10493,0.19251 -0.0441,0.0699 -0.20413,0.28128 -0.26559,0.3357 -0.0556,0.0492 -0.24887,0.16198 -0.18492,0.12425 2.29426,-1.35419 3.02477,-1.51135 2.02176,-1.27016 -0.13271,0.0887 -0.68945,-0.42849 -0.73321,-0.40434 -0.83979,0.46382 -1.6387,0.99812 -2.45803,1.49715 0.0867,0.21542 0.17103,0.43122 0.25826,0.64632 0,0 2.45263,-1.38403 2.45263,-1.38403 v 0 c -0.0659,-0.12885 -0.16219,-0.29255 -0.1492,-0.43656 -0.79517,0.44412 -1.58398,0.89992 -2.38556,1.33236 -0.0238,0.013 0.0161,-0.0679 0.0433,-0.0688 0.0435,-0.003 0.0781,0.0389 0.11385,0.0635 0.19966,0.13729 0.35925,0.32898 0.59926,0.4033 1.21068,0.17085 2.85353,-0.99935 3.31147,-2.22326 0.1443,-0.53041 0.27138,-1.07083 0.2636,-1.62412 0,0 -2.49952,1.27357 -2.49952,1.27357 z" />
    <path
       style="fill:none;stroke:#000000;stroke-width:1.24919;stroke-linecap:butt;stroke-linejoin:miter;stroke-miterlimit:4;stroke-dasharray:none;stroke-opacity:1"
       d="m 603.63968,441.93104 c 0,0 29.34869,4.36698 33.50347,19.68842 0,0 13.17156,-13.24898 26.16631,-11.17651"
       id="path2556" />
    <path
       style="fill:none;stroke:#000000;stroke-width:1.24919;stroke-linecap:butt;stroke-linejoin:miter;stroke-miterlimit:4;stroke-dasharray:none;stroke-opacity:1"
       d="m 663.30946,450.44295 c 0,0 -0.0442,11.28753 -0.3536,12.06471 -0.3094,0.77716 -6.09958,12.84187 -11.62456,13.73006 -5.52497,0.88822 -13.48095,0.92522 -14.98374,-0.70314"
       id="path2558" />
    <path
       style="fill:none;stroke:#000000;stroke-width:1.24919;stroke-linecap:butt;stroke-linejoin:miter;stroke-miterlimit:4;stroke-dasharray:none;stroke-opacity:1"
       d="m 637.14315,461.61946 -0.79559,13.91512 c 0,0 -6.76257,3.10869 -12.99476,1.33229 -6.23218,-1.77639 -14.27654,-4.81108 -15.29313,-7.40166 -1.01661,-2.59057 -7.77649,-22.66648 -4.41999,-27.53417"
       id="path2560" />
    <path
       style="fill:none;stroke:#000000;stroke-width:1.24919;stroke-linecap:butt;stroke-linejoin:miter;stroke-miterlimit:4;stroke-dasharray:none;stroke-opacity:1"
       d="m 636.99963,477.48402 -36.37966,-0.26169 c 0,0 -5.00064,0.94207 -3.8755,3.24493 l -0.37504,6.22818 c 0,0 1.62521,2.93092 3.31292,2.77391 0,0 -1.01576,0.11775 -0.59383,1.70096 l 9.19215,36.69401"
       id="path2562" />
    <path
       style="fill:none;stroke:#000000;stroke-width:1.24919;stroke-linecap:butt;stroke-linejoin:miter;stroke-miterlimit:4;stroke-dasharray:none;stroke-opacity:1"
       d="m 608.28067,527.86431 -4.99459,0.14804 c 0,0 -3.44758,0.96221 -4.06638,3.40476 l 0.17681,3.55281 c 0,0 1.85639,3.03467 3.09398,2.59056 l 60.68637,0.25906 c 0,0 3.0056,-0.11097 4.02219,-3.81185 v -3.21972 c 0,0 -2.62989,-3.16421 -3.95588,-2.6831 l -5.01669,-0.0925 9.05828,-37.57476 c 0,0 0.28129,-0.62805 -0.0625,-0.96824 0,0 1.81274,-0.52338 1.81274,-0.86358 0,0 1.37517,-1.17759 1.40642,-2.11967 0.0313,-0.94208 0.0625,-6.56837 0.0625,-6.56837 0,0 -2.43781,-3.42812 -4.56308,-2.82624 l -20.62764,-0.18318 -8.31357,0.57571"
       id="path2564" />
    <path
       style="fill:none;stroke:#000000;stroke-width:1.24919;stroke-linecap:butt;stroke-linejoin:miter;stroke-miterlimit:4;stroke-dasharray:none;stroke-opacity:1"
       d="m 635.10995,487.08116 h 30.49791 c 0,0 1.4144,-0.22204 1.76798,-1.11024 0.3536,-0.8882 0.1768,-4.73707 0.1768,-4.73707 0,0 -1.14919,-1.33229 -2.82879,-1.03624 -1.6796,0.29607 -63.64776,-0.29605 -63.64776,-0.29605 0,0 -1.94479,0.81418 -1.85639,1.48032 0.0884,0.66615 -0.0884,4.14493 -0.0884,4.14493 0,0 0.7072,1.70239 2.12159,1.40633 1.41439,-0.29607 33.85707,0.14802 33.85707,0.14802 z"
       id="path2566" />
    <path
       style="fill:none;stroke:#000000;stroke-width:1.24919;stroke-linecap:butt;stroke-linejoin:miter;stroke-miterlimit:4;stroke-dasharray:none;stroke-opacity:1"
       d="m 603.74536,489.57402 58.38249,0.20935 c 0,0 1.93775,-0.20935 1.6877,1.20375 -0.25002,1.41313 -8.5636,35.95597 -8.5636,35.95597 0,0 -0.18752,1.57014 -1.43766,1.04674 -1.25017,-0.52337 -41.25529,0 -41.25529,0 0,0 -1.56271,0.5234 -1.31267,-0.9944 0.25002,-1.51779 -8.81364,-36.16532 -8.81364,-36.16532 0,0 0,-1.30844 1.31267,-1.25609 z"
       id="path2568" />
    <path
       style="fill:none;stroke:#000000;stroke-width:1.24919;stroke-linecap:butt;stroke-linejoin:miter;stroke-miterlimit:4;stroke-dasharray:none;stroke-opacity:1"
       d="m 603.37033,530.97309 c 8.87613,0 59.19508,0.0523 59.19508,0.0523 0,0 1.50019,0.0523 1.62521,1.9365 0.12502,1.88417 -0.25004,1.46545 -0.25004,1.46545 0,0 -0.50006,1.5178 -1.87525,1.04676 -1.37516,-0.47104 -57.69487,-0.26168 -57.69487,-0.26168 0,0 -1.93777,-0.0523 -1.93777,-0.99443 0,-0.94207 0,-2.30285 0,-2.30285 0,0 0.37506,-1.30845 0.93764,-0.94208 z"
       id="path2570" />
    <g
       sodipodi:type="inkscape:box3d"
       id="g2600"
       style="fill:#000000;fill-opacity:1;stroke:#df001f;stroke-width:7.8;stroke-miterlimit:4;stroke-dasharray:none;stroke-dashoffset:39.9628"
       inkscape:perspectiveID="#perspective1406"
       inkscape:corner0="-0.082307095 : 0.39878832 : 0 : 1"
       inkscape:corner7="-0.1282939 : 0.31153629 : 0.25 : 1">
      <path
         sodipodi:type="inkscape:box3dside"
         id="path2612"
         style="fill:#e9e9ff;fill-rule:evenodd;stroke:none;stroke-width:3.51452;stroke-linejoin:round"
         inkscape:box3dsidetype="11"
         d="m 484.64468,526.31596 6.39202,-1.70385 v 8.91337 l -6.39202,1.35281 z"
         points="491.0367,524.61211 491.0367,533.52548 484.64468,534.87829 484.64468,526.31596 " />
      <path
         sodipodi:type="inkscape:box3dside"
         id="path2602"
         style="fill:#353564;fill-rule:evenodd;stroke:none;stroke-width:3.51452;stroke-linejoin:round"
         inkscape:box3dsidetype="6"
         d="m 460.98975,523.5149 v 10.89491 l 23.65493,0.46848 v -8.56233 z"
         points="460.98975,534.40981 484.64468,534.87829 484.64468,526.31596 460.98975,523.5149 " />
      <path
         sodipodi:type="inkscape:box3dside"
         id="path2604"
         style="fill:#4d4d9f;fill-rule:evenodd;stroke:none;stroke-width:3.51452;stroke-linejoin:round"
         inkscape:box3dsidetype="5"
         d="m 460.98975,523.5149 6.97728,-2.34027 23.06967,3.43748 -6.39202,1.70385 z"
         points="467.96703,521.17463 491.0367,524.61211 484.64468,526.31596 460.98975,523.5149 " />
      <path
         sodipodi:type="inkscape:box3dside"
         id="path2610"
         style="fill:#afafde;fill-rule:evenodd;stroke:none;stroke-width:3.51452;stroke-linejoin:round"
         inkscape:box3dsidetype="13"
         d="m 460.98975,534.40981 6.97728,-1.76551 23.06967,0.88118 -6.39202,1.35281 z"
         points="467.96703,532.6443 491.0367,533.52548 484.64468,534.87829 460.98975,534.40981 " />
      <path
         sodipodi:type="inkscape:box3dside"
         id="path2608"
         style="fill:#d7d7ff;fill-rule:evenodd;stroke:none;stroke-width:3.51452;stroke-linejoin:round"
         inkscape:box3dsidetype="14"
         d="m 467.96703,521.17463 v 11.46967 l 23.06967,0.88118 v -8.91337 z"
         points="467.96703,532.6443 491.0367,533.52548 491.0367,524.61211 467.96703,521.17463 " />
      <path
         sodipodi:type="inkscape:box3dside"
         id="path2606"
         style="fill:#8686bf;fill-rule:evenodd;stroke:none;stroke-width:3.51452;stroke-linejoin:round"
         inkscape:box3dsidetype="3"
         d="m 460.98975,523.5149 6.97728,-2.34027 v 11.46967 l -6.97728,1.76551 z"
         points="467.96703,521.17463 467.96703,532.6443 460.98975,534.40981 460.98975,523.5149 " />
    </g>
    <path
       style="fill:none;stroke:#000000;stroke-width:2.66567708;stroke-linecap:butt;stroke-linejoin:miter;stroke-miterlimit:4;stroke-dasharray:none;stroke-opacity:1"
       d="m 590.22948,452.69179 c 0,0 35.73614,-72.6511 91.06997,-0.3677"
       id="path2614" />
    <path
       style="fill:#000000;stroke:#0000ff;stroke-width:0.66145833;stroke-linecap:butt;stroke-linejoin:miter;stroke-opacity:1;stroke-miterlimit:4;stroke-dasharray:none"
       d="m 615.15624,425.79017 c -0.18899,7.55952 0,7.18156 0,7.18156"
       id="path2616" />
    <path
       style="fill:#000000;stroke:#0000ff;stroke-width:0.66145833;stroke-linecap:butt;stroke-linejoin:miter;stroke-opacity:1;stroke-miterlimit:4;stroke-dasharray:none"
       d="m 625.73958,429.94791 c -0.189,11.90625 -0.189,11.90625 -0.189,11.90625"
       id="path2618" />
    <path
       style="fill:#000000;stroke:#0000ff;stroke-width:0.79375;stroke-linecap:butt;stroke-linejoin:miter;stroke-opacity:1;stroke-miterlimit:4;stroke-dasharray:none"
       d="m 635.37798,429.75892 c -0.189,18.52083 -0.189,18.52083 -0.189,18.52083"
       id="path2620" />
    <path
       style="fill:#000000;stroke:#0000ff;stroke-width:0.66145833;stroke-linecap:butt;stroke-linejoin:miter;stroke-opacity:1;stroke-miterlimit:4;stroke-dasharray:none"
       d="m 645.96131,443.74405 c -0.37798,5.66963 -0.37798,5.66963 -0.37798,5.66963"
       id="path2622" />
    <path
       style="fill:#000000;stroke:#0000ff;stroke-width:0.873125;stroke-linecap:butt;stroke-linejoin:miter;stroke-opacity:1;stroke-miterlimit:4;stroke-dasharray:none"
       d="m 648.9851,431.8378 c 1.7009,15.49702 1.7009,15.49702 1.7009,15.49702"
       id="path2624" />
    <path
       style="fill:#000000;stroke:#0000ff;stroke-width:1.05833333;stroke-linecap:butt;stroke-linejoin:miter;stroke-opacity:1;stroke-miterlimit:4;stroke-dasharray:none"
       d="m 661.08034,432.78274 c 0.75597,13.9851 0.75597,13.9851 0.75597,13.9851"
       id="path2626" />
    <path
       style="fill:#000000;stroke:#0000ff;stroke-width:0.52916667;stroke-linecap:butt;stroke-linejoin:miter;stroke-opacity:1;stroke-miterlimit:4;stroke-dasharray:none"
       d="m 607.59673,430.89284 c 0.37795,9.44941 0.37795,9.44941 0.37795,9.44941 v 0 0"
       id="path2628" />
    <path
       style="fill:#000000;stroke:#c87137;stroke-width:2.01083333;stroke-linecap:butt;stroke-linejoin:miter;stroke-opacity:1;stroke-miterlimit:4;stroke-dasharray:none"
       d="m 590.22948,452.69179 6.13994,34.00364"
       id="path2630" />
    <path
       style="fill:#ff7f2a;stroke:#d45500;stroke-width:1.56104167;stroke-linecap:butt;stroke-linejoin:miter;stroke-opacity:1;stroke-miterlimit:4;stroke-dasharray:none"
       d="m 669.03499,488.60577 12.26444,-36.28168"
       id="path2632" />
    <path
       style="fill:#2b0000;fill-opacity:1;stroke:none;stroke-width:1.27;stroke-miterlimit:4;stroke-dasharray:none;stroke-dashoffset:39.9628"
       id="path2634"
       d="m 481.4685,457.87907 c -0.0167,-0.52636 -0.01,-1.05314 -0.007,-1.57966 0,-0.46265 0,-0.92531 0.003,-1.38798 -0.0324,-0.68268 0.0831,-1.35557 0.14906,-2.03359 0.0539,-1.35141 0.20222,-2.69102 0.39561,-4.0286 0.16277,-0.99192 0.39962,-1.96871 0.5942,-2.95428 0.13462,-1.0236 0.47903,-1.99837 0.74573,-2.99085 0.0352,-0.15164 0.0837,-0.40728 0.15509,-0.55684 0.0764,-0.15984 0.21675,-0.32034 0.31756,-0.46215 0.13472,-0.1895 0.30945,-0.4589 0.43537,-0.65006 0.53607,-0.66643 0.835,-1.47404 1.35255,-2.15119 0.0899,-0.0787 0.17592,-0.16201 0.26956,-0.2362 0.10043,-0.0795 0.20336,-0.15658 0.31202,-0.22442 0.11078,-0.0691 0.45694,-0.25273 0.34496,-0.1856 -0.64939,0.38923 -1.31487,0.75163 -1.95741,1.15205 -0.15158,0.0944 0.3212,-0.15629 0.48252,-0.23291 0.18444,-0.0876 0.36984,-0.17317 0.55475,-0.25977 1.52559,-0.73221 3.11923,-1.30781 4.68643,-1.94271 1.41412,-0.58234 2.86293,-1.08301 4.34679,-1.45454 1.04553,-0.19672 2.08455,-0.42336 3.13217,-0.60955 1.25491,-0.23603 2.50512,-0.48593 3.7747,-0.62923 0.97681,-0.0972 1.95905,-0.1098 2.93976,-0.11978 1.27659,-0.03 2.5519,-0.006 3.82511,0.0904 1.03261,0.097 2.06454,0.19841 3.0997,0.2644 0.689,0.0337 1.3789,0.0352 2.06853,0.0386 0.95118,-0.006 1.88654,0.21852 2.82623,0.33973 0.37978,0.049 0.76107,0.0855 1.1416,0.12832 2.06642,0.18783 4.13731,0.32377 6.2094,0.43069 0.93043,0.0604 1.86275,0.0306 2.79397,0.0548 1.37695,0.0729 2.75529,0.10271 4.13361,0.13433 1.26836,-0.0478 2.51045,0.14872 3.75759,0.34673 2.25912,0.39074 4.54634,0.5733 6.83286,0.70697 1.54948,0.0795 3.10105,0.10102 4.65225,0.11668 1.20063,-0.0621 2.37998,0.0799 3.561,0.27538 1.66455,0.25654 3.34069,0.42635 5.01029,0.64704 3.3429,0.51824 6.67951,1.07648 10.0082,1.67939 3.50793,0.63508 7.01112,1.29765 10.49743,2.04282 2.64054,0.57489 5.28296,1.14178 7.92199,1.7235 1.27609,0.2658 2.52667,0.62888 3.73208,1.12442 0.83773,0.33176 1.63433,0.75258 2.46743,1.09548 0.62484,0.20672 1.21549,0.47475 1.78414,0.80344 0.35112,0.24908 0.67153,0.52215 1.07275,0.68768 0.36041,0.12501 0.74319,0.1362 1.12054,0.14475 0.0629,0 0.12586,0 0.1888,0.003 0,0 2.26552,-1.64499 2.26552,-1.64499 v 0 c -0.0624,1.9e-4 -0.12469,0 -0.18706,0 -0.35642,0 -0.71686,0.004 -1.06738,-0.0702 -0.41272,-0.11895 -0.72041,-0.38422 -1.06053,-0.63661 -0.58542,-0.3266 -1.17305,-0.6381 -1.82356,-0.8209 -0.83918,-0.33573 -1.6465,-0.73771 -2.47981,-1.0864 -1.23904,-0.50319 -2.52547,-0.86098 -3.83982,-1.10982 -2.6812,-0.53832 -5.36326,-1.07056 -8.03783,-1.64151 -3.48892,-0.75776 -7.00087,-1.40618 -10.51382,-2.04152 -3.29727,-0.59505 -6.60114,-1.15274 -9.89383,-1.77263 -1.65005,-0.24003 -3.30258,-0.44934 -4.95393,-0.67614 -0.45286,-0.0807 -0.90286,-0.17849 -1.35797,-0.24532 -0.73216,-0.1075 -1.47124,-0.0874 -2.20853,-0.0823 -1.57186,0.0106 -3.14426,0.008 -4.71519,-0.0545 -2.27362,-0.10392 -4.55171,-0.25728 -6.78937,-0.69604 -0.66315,-0.13731 -1.34104,-0.29382 -2.01618,-0.36769 -0.36962,-0.0404 -0.72411,-0.0285 -1.09503,-0.0302 -0.21439,0 -0.42878,-0.003 -0.64318,-0.005 -1.36951,-0.0175 -2.73878,-0.0578 -4.10572,-0.14695 -0.93636,-0.0512 -1.87399,-0.0282 -2.81144,-0.0439 -2.09272,-0.041 -4.1865,-0.13078 -6.26798,-0.36041 -1.24634,-0.16571 -0.84592,-0.0974 -1.95976,-0.29631 -0.51943,-0.0928 -1.05778,-0.24114 -1.58563,-0.28649 -0.10591,-0.009 -0.21261,2.4e-4 -0.31895,0 -0.68953,0.003 -1.37933,0.003 -2.06857,-0.0214 -1.04962,-0.0404 -2.09661,-0.12266 -3.14206,-0.22405 -1.26753,-0.10903 -2.53685,-0.14518 -3.80899,-0.13113 -0.99076,0.003 -1.98247,0.0159 -2.96974,0.10742 -1.27698,0.13113 -2.53103,0.38434 -3.79177,0.62016 -1.04642,0.17653 -2.08153,0.39913 -3.12695,0.58015 -1.51524,0.381 -2.99542,0.89435 -4.44267,1.48133 -1.54614,0.62828 -3.12449,1.18038 -4.63714,1.88711 -1.43817,0.65913 -2.1128,1.06725 -3.7868,2.02745 -0.22529,0.12925 -0.44939,0.29366 -0.63653,0.47411 -0.0913,0.0881 -0.16994,0.18838 -0.25493,0.28257 -0.46286,0.70702 -0.80885,1.48648 -1.33752,2.15202 -0.37891,0.55321 -0.7996,1.06598 -0.87664,1.75707 -0.24908,0.99187 -0.55356,1.97181 -0.70316,2.98616 -0.21082,0.98888 -0.46908,1.96895 -0.59121,2.97482 -0.15666,1.34197 -0.28361,2.68547 -0.39187,4.03207 -0.0897,0.69514 -0.23157,1.38639 -0.19328,2.09063 0.003,0.46183 0.003,0.92366 0.003,1.38546 0.003,0.52901 0.009,1.05826 -0.007,1.58708 0,0 2.49952,-1.27357 2.49952,-1.27357 z" />
    <circle
       id="path2636"
       style="fill:#df001f;stroke:#000000;stroke-width:0.264583"
       cx="536.67725"
       cy="436.18387"
       r="0.16954643" />
    <circle
       id="path2638"
       style="fill:#000000;stroke:#df001f;stroke-width:0.264583"
       cx="542.55713"
       cy="436.98566"
       r="0.16954643" />
    <circle
       id="path2640"
       style="fill:#000000;stroke:#df001f;stroke-width:0.264583"
       cx="542.55713"
       cy="544.96252"
       r="0.16954643" />
    <path
       style="fill:none;stroke:#000000;stroke-width:1.27;stroke-linecap:butt;stroke-linejoin:miter;stroke-opacity:1;stroke-miterlimit:4;stroke-dasharray:none"
       d="m 513.69203,493.91408 10.69078,-1.06908 -0.26728,4.81084 -10.15625,1.06908"
       id="path2656" />
    <path
       style="fill:none;stroke:#000000;stroke-width:1.190625;stroke-linecap:butt;stroke-linejoin:miter;stroke-opacity:1;stroke-miterlimit:4;stroke-dasharray:none"
       d="m 513.42475,505.40668 12.56167,-0.80182 -1.06907,5.87994 -10.95807,0.26726"
       id="path2658" />
    <text
       xml:space="preserve"
       style="font-style:normal;font-weight:normal;font-size:10.5833px;line-height:1.25;font-family:sans-serif;fill:#000000;fill-opacity:1;stroke:none;stroke-width:0.264583"
       x="450.8837"
       y="559.92969"
       id="text2662"><tspan
         sodipodi:role="line"
         id="tspan2660"
         x="450.8837"
         y="559.92969"
         style="stroke-width:0.264583">Motor</tspan><tspan
         sodipodi:role="line"
         x="450.8837"
         y="573.15881"
         style="stroke-width:0.264583"
         id="tspan2664" /></text>
    <path
       style="fill:none;stroke:#000000;stroke-width:2.2225;stroke-linecap:butt;stroke-linejoin:miter;stroke-opacity:1;stroke-miterlimit:4;stroke-dasharray:none"
       d="m 466.11804,552.98064 c 10.42352,-18.70887 10.42352,-18.70887 10.42352,-18.70887"
       id="path2670" />
    <text
       xml:space="preserve"
       style="font-style:normal;font-weight:normal;font-size:10.5833px;line-height:1.25;font-family:sans-serif;fill:#000000;fill-opacity:1;stroke:none;stroke-width:0.264583"
       x="531.33179"
       y="493.64682"
       id="text2674"><tspan
         sodipodi:role="line"
         id="tspan2672"
         x="531.33179"
         y="493.64682"
         style="stroke-width:0.264583">Sensor</tspan></text>
    <text
       xml:space="preserve"
       style="font-style:normal;font-weight:normal;font-size:10.5833px;line-height:1.25;font-family:sans-serif;fill:#000000;fill-opacity:1;stroke:none;stroke-width:0.264583"
       x="531.33185"
       y="513.95929"
       id="text2678"><tspan
         sodipodi:role="line"
         id="tspan2676"
         x="531.33185"
         y="513.95929"
         style="stroke-width:0.264583">Arduino</tspan></text>
    <text
       xml:space="preserve"
       style="font-style:normal;font-weight:normal;font-size:10.5833px;line-height:1.25;font-family:sans-serif;fill:#000000;fill-opacity:1;stroke:none;stroke-width:0.264583"
       x="514.22656"
       y="426.02765"
       id="text2682"><tspan
         sodipodi:role="line"
         id="tspan2680"
         x="514.22656"
         y="426.02765"
         style="stroke-width:0.264583">Manguera</tspan></text>
  </g>
</svg>
